<svg
  xmlns="http://www.w3.org/2000/svg"
  xmlns:xlink="http://www.w3.org/1999/xlink"
  width="24"
  height="24"
  viewBox="0 0 24 24"
  version="1.1"
>
  <g id="surface1">
    <path
      style="
        fill: none;
        stroke-width: 0.09999;
        stroke-linecap: butt;
        stroke-linejoin: miter;
        stroke: rgb(13.72549%, 12.156863%, 12.54902%);
        stroke-opacity: 1;
        stroke-miterlimit: 4;
      "
      d="M 246.309619 318.464809 L 246.309619 318.505676 "
      transform="matrix(0.0958306,0,0,-0.0955857,-16.096179,33.421158)"
    />
    <path
      style="
        stroke: none;
        fill-rule: nonzero;
        fill: rgb(13.72549%, 12.156863%, 12.54902%);
        fill-opacity: 1;
      "
      d="M 12.199219 23.363281 L 12.058594 23.363281 L 12.058594 23.175781 L 11.902344 23.175781 L 11.902344 23.808594 C 11.859375 23.835938 11.808594 23.847656 11.757812 23.847656 L 11.460938 23.847656 L 11.460938 23.339844 L 11.765625 23.339844 L 11.765625 23.183594 L 11.304688 23.183594 L 11.304688 24.003906 L 11.761719 24.003906 C 11.8125 24.003906 11.859375 23.992188 11.902344 23.96875 L 11.902344 24.59375 L 12.058594 24.59375 L 12.058594 23.519531 L 12.199219 23.519531 L 12.199219 24.59375 L 12.355469 24.59375 L 12.355469 23.175781 L 12.199219 23.175781 Z M 7.449219 22.152344 L 7.3125 22.078125 L 6.867188 22.886719 L 7.003906 22.964844 L 7.289062 22.441406 L 7.410156 22.507812 L 7.488281 22.371094 L 7.367188 22.304688 Z M 6.355469 22.605469 L 6.21875 22.53125 L 5.984375 22.960938 L 5.980469 22.964844 L 6.765625 23.394531 L 6.84375 23.257812 L 6.195312 22.902344 Z M 6.542969 22.539062 C 6.710938 22.628906 6.921875 22.570312 7.011719 22.402344 C 7.058594 22.320312 7.066406 22.230469 7.042969 22.148438 L 7.132812 22.199219 L 7.207031 22.0625 L 6.964844 21.929688 L 7.007812 21.851562 L 6.871094 21.777344 L 6.828125 21.855469 L 6.585938 21.71875 L 6.511719 21.859375 L 6.601562 21.90625 C 6.519531 21.933594 6.449219 21.992188 6.40625 22.070312 C 6.316406 22.234375 6.375 22.445312 6.542969 22.539062 M 6.804688 22.066406 C 6.898438 22.117188 6.933594 22.234375 6.878906 22.328125 C 6.828125 22.421875 6.710938 22.457031 6.617188 22.40625 C 6.523438 22.355469 6.488281 22.234375 6.539062 22.140625 C 6.589844 22.046875 6.710938 22.011719 6.804688 22.066406 Z M 14.941406 22.777344 L 14.789062 22.808594 L 14.980469 23.707031 L 14.261719 23.859375 L 14.292969 24.011719 L 15.011719 23.859375 L 15.082031 24.195312 L 15.238281 24.164062 L 15.015625 23.113281 L 15.15625 23.082031 L 15.125 22.929688 L 14.980469 22.960938 Z M 14.941406 22.777344 "
    />
    <path
      style="
        stroke: none;
        fill-rule: nonzero;
        fill: rgb(13.72549%, 12.156863%, 12.54902%);
        fill-opacity: 1;
      "
      d="M 14.507812 23.652344 C 14.691406 23.613281 14.8125 23.429688 14.773438 23.246094 C 14.753906 23.160156 14.703125 23.082031 14.632812 23.035156 L 14.730469 23.011719 L 14.699219 22.859375 L 14.429688 22.917969 L 14.410156 22.832031 L 14.257812 22.863281 L 14.273438 22.949219 L 14.003906 23.003906 L 14.039062 23.160156 L 14.140625 23.136719 C 14.09375 23.210938 14.078125 23.300781 14.097656 23.386719 C 14.136719 23.574219 14.320312 23.691406 14.507812 23.652344 M 14.394531 23.125 C 14.5 23.105469 14.601562 23.171875 14.625 23.277344 C 14.648438 23.378906 14.582031 23.484375 14.476562 23.507812 C 14.371094 23.527344 14.265625 23.460938 14.242188 23.355469 C 14.234375 23.304688 14.242188 23.253906 14.269531 23.210938 C 14.300781 23.167969 14.34375 23.136719 14.394531 23.125 Z M 9.65625 23.054688 L 9.511719 23.035156 L 9.488281 23.1875 L 9.636719 23.207031 L 9.488281 24.28125 L 9.640625 24.300781 L 9.839844 22.882812 L 9.683594 22.859375 Z M 9.242188 22.910156 L 9.257812 22.800781 L 9.078125 22.777344 L 9.0625 22.882812 C 9.027344 23.132812 8.875 23.351562 8.652344 23.46875 L 8.75 23.585938 C 8.898438 23.503906 9.023438 23.375 9.105469 23.226562 C 9.144531 23.394531 9.230469 23.546875 9.351562 23.671875 L 9.480469 23.582031 C 9.296875 23.40625 9.207031 23.15625 9.242188 22.910156 Z M 17.570312 23 L 17.34375 22.605469 L 17.207031 22.683594 L 17.433594 23.078125 L 17.292969 23.160156 L 17.0625 22.761719 L 16.925781 22.839844 L 17.15625 23.238281 L 16.929688 23.367188 L 17.007812 23.503906 L 17.964844 22.957031 L 17.886719 22.820312 Z M 17.390625 22.425781 C 17.410156 22.460938 17.417969 22.503906 17.421875 22.542969 L 17.574219 22.523438 C 17.578125 22.464844 17.5625 22.410156 17.535156 22.363281 L 17.230469 21.828125 L 16.414062 22.292969 L 16.492188 22.429688 L 17.171875 22.042969 Z M 17.390625 22.425781 "
    />
    <path
      style="
        fill: none;
        stroke-width: 1;
        stroke-linecap: butt;
        stroke-linejoin: miter;
        stroke: rgb(13.72549%, 12.156863%, 12.54902%);
        stroke-opacity: 1;
        stroke-miterlimit: 4;
      "
      d="M 323.512929 100.483118 L 323.512929 100.442251 Z M 323.512929 100.483118 "
      transform="matrix(0.0958306,0,0,-0.0955857,-16.096179,33.421158)"
    />
    <path
      style="
        stroke: none;
        fill-rule: nonzero;
        fill: rgb(13.72549%, 12.156863%, 12.54902%);
        fill-opacity: 1;
      "
      d="M 3.566406 8.648438 L 3.640625 8.441406 L 3.785156 8.496094 L 3.726562 8.65625 L 4.222656 8.660156 L 4.21875 8.800781 L 3.789062 8.800781 L 4.140625 9.058594 L 4.027344 9.175781 L 3.648438 8.867188 L 3.59375 9.019531 L 3.453125 8.960938 L 3.523438 8.769531 L 3.34375 8.707031 L 3.386719 8.585938 Z M 4.214844 7.742188 L 4.652344 7.949219 L 4.574219 8.105469 L 3.808594 7.734375 L 3.882812 7.578125 L 4.042969 7.652344 L 4.089844 7.554688 L 4.265625 7.644531 Z M 4.453125 7 C 4.433594 6.886719 4.457031 6.78125 4.527344 6.6875 C 4.59375 6.589844 4.683594 6.53125 4.796875 6.511719 C 4.90625 6.488281 5.011719 6.511719 5.105469 6.578125 C 5.199219 6.644531 5.257812 6.734375 5.277344 6.851562 C 5.296875 6.964844 5.273438 7.070312 5.207031 7.167969 C 5.140625 7.261719 5.046875 7.320312 4.933594 7.339844 C 4.820312 7.363281 4.714844 7.339844 4.621094 7.269531 C 4.527344 7.207031 4.472656 7.117188 4.453125 7 M 4.671875 6.960938 C 4.679688 7.015625 4.707031 7.054688 4.75 7.085938 C 4.796875 7.117188 4.84375 7.128906 4.894531 7.121094 C 4.949219 7.109375 4.992188 7.082031 5.023438 7.039062 C 5.050781 6.996094 5.0625 6.945312 5.050781 6.894531 C 5.046875 6.84375 5.015625 6.796875 4.972656 6.769531 C 4.929688 6.738281 4.882812 6.726562 4.828125 6.738281 C 4.777344 6.746094 4.734375 6.773438 4.707031 6.816406 C 4.675781 6.855469 4.664062 6.910156 4.671875 6.960938 Z M 5.277344 5.925781 C 5.277344 5.808594 5.316406 5.710938 5.398438 5.625 C 5.480469 5.542969 5.578125 5.5 5.695312 5.5 C 5.808594 5.496094 5.90625 5.535156 5.988281 5.617188 C 6.070312 5.699219 6.113281 5.796875 6.113281 5.914062 C 6.113281 6.03125 6.074219 6.132812 5.992188 6.214844 C 5.90625 6.296875 5.808594 6.339844 5.695312 6.339844 C 5.578125 6.339844 5.480469 6.300781 5.398438 6.21875 C 5.316406 6.136719 5.273438 6.039062 5.277344 5.925781 M 5.496094 5.921875 C 5.496094 5.976562 5.515625 6.023438 5.554688 6.058594 C 5.589844 6.097656 5.640625 6.117188 5.691406 6.117188 C 5.746094 6.117188 5.792969 6.09375 5.832031 6.054688 C 5.867188 6.019531 5.886719 5.972656 5.882812 5.921875 C 5.886719 5.871094 5.867188 5.820312 5.828125 5.78125 C 5.792969 5.746094 5.746094 5.726562 5.691406 5.726562 C 5.640625 5.726562 5.589844 5.746094 5.558594 5.785156 C 5.519531 5.820312 5.5 5.871094 5.496094 5.921875 Z M 6.820312 4.800781 L 6.949219 4.976562 L 6.292969 5.480469 L 6.160156 5.308594 Z M 6.988281 4.273438 L 7.136719 4.1875 L 7.589844 4.96875 L 7.4375 5.058594 Z M 8.191406 4.148438 L 7.984375 4.253906 L 7.941406 4.164062 L 8.152344 4.058594 Z M 9.132812 3.519531 L 9.0625 4.101562 L 8.875 4.050781 L 8.960938 3.28125 L 9.121094 3.222656 L 9.65625 3.78125 L 9.527344 3.941406 Z M 9.949219 2.964844 L 10.121094 2.929688 L 10.308594 3.8125 L 10.136719 3.847656 Z M 10.625 2.9375 L 10.796875 2.925781 L 10.820312 3.433594 L 11.472656 3.382812 L 11.488281 3.601562 L 10.664062 3.664062 Z M 12.03125 2.871094 L 12.207031 2.882812 L 12.195312 3.367188 L 12.847656 3.402344 L 12.835938 3.621094 L 12.011719 3.578125 Z M 13.578125 2.988281 L 13.601562 2.859375 L 13.769531 2.890625 L 13.574219 3.90625 L 13.402344 3.875 L 13.472656 3.5625 L 13.292969 3.527344 L 13.328125 3.3125 L 13.511719 3.347656 L 13.539062 3.207031 L 13.355469 3.171875 L 13.394531 2.957031 Z M 14.34375 3.058594 L 15.128906 3.308594 L 14.886719 4.082031 L 14.097656 3.828125 L 14.34375 3.058594 M 14.898438 3.464844 L 14.441406 3.320312 L 14.328125 3.675781 L 14.785156 3.820312 Z M 15.566406 4.011719 L 15.351562 3.917969 L 15.390625 3.824219 L 15.605469 3.917969 Z M 16.292969 4.839844 L 16.570312 4.324219 L 15.996094 4.011719 L 16.097656 3.820312 L 16.824219 4.214844 L 16.445312 4.921875 Z M 17.566406 4.902344 L 17.429688 5.085938 L 17.753906 5.308594 L 17.628906 5.488281 L 16.835938 4.933594 L 16.960938 4.757812 L 17.289062 4.984375 L 17.425781 4.800781 Z M 18.234375 5.386719 C 18.347656 5.386719 18.449219 5.429688 18.53125 5.511719 C 18.617188 5.589844 18.65625 5.691406 18.660156 5.804688 C 18.664062 5.921875 18.625 6.019531 18.542969 6.101562 C 18.464844 6.183594 18.367188 6.226562 18.25 6.230469 C 18.132812 6.230469 18.035156 6.191406 17.953125 6.109375 C 17.867188 6.027344 17.824219 5.925781 17.824219 5.8125 C 17.820312 5.695312 17.863281 5.59375 17.941406 5.511719 C 18.023438 5.429688 18.121094 5.386719 18.234375 5.386719 M 18.238281 5.609375 C 18.1875 5.609375 18.136719 5.632812 18.101562 5.667969 C 18.066406 5.707031 18.046875 5.757812 18.046875 5.808594 C 18.046875 5.863281 18.066406 5.90625 18.105469 5.945312 C 18.144531 5.980469 18.191406 6 18.242188 6 C 18.296875 6 18.34375 5.980469 18.378906 5.941406 C 18.417969 5.90625 18.433594 5.859375 18.433594 5.800781 C 18.433594 5.753906 18.414062 5.703125 18.375 5.667969 C 18.339844 5.632812 18.289062 5.609375 18.238281 5.609375 Z M 19.042969 6.585938 C 19.070312 6.574219 19.101562 6.566406 19.132812 6.566406 L 19.082031 6.492188 L 19.257812 6.363281 L 19.429688 6.605469 L 19.53125 6.53125 L 19.679688 6.730469 L 19.574219 6.804688 L 19.75 7.046875 L 19.574219 7.175781 L 19.515625 7.09375 C 19.503906 7.125 19.488281 7.152344 19.46875 7.175781 C 19.449219 7.203125 19.425781 7.226562 19.398438 7.246094 C 19.3125 7.308594 19.21875 7.332031 19.117188 7.3125 C 19.015625 7.296875 18.933594 7.246094 18.875 7.160156 C 18.8125 7.078125 18.789062 6.984375 18.808594 6.878906 C 18.824219 6.777344 18.875 6.695312 18.957031 6.632812 C 18.984375 6.613281 19.011719 6.597656 19.042969 6.585938 M 19.203125 6.789062 C 19.160156 6.78125 19.125 6.792969 19.085938 6.816406 C 19.054688 6.839844 19.03125 6.875 19.027344 6.914062 C 19.019531 6.957031 19.027344 7 19.054688 7.03125 C 19.078125 7.066406 19.113281 7.085938 19.152344 7.09375 C 19.195312 7.101562 19.234375 7.09375 19.269531 7.066406 C 19.304688 7.042969 19.324219 7.007812 19.328125 6.964844 C 19.335938 6.921875 19.328125 6.882812 19.300781 6.851562 C 19.277344 6.816406 19.242188 6.792969 19.203125 6.789062 Z M 19.960938 7.75 L 20.179688 7.636719 L 20.257812 7.789062 L 19.445312 8.230469 L 19.363281 8.074219 L 19.769531 7.851562 L 19.699219 7.714844 L 19.890625 7.617188 Z M 20.484375 8.386719 L 20.542969 8.550781 L 19.996094 8.753906 L 20.160156 9.246094 L 19.957031 9.324219 L 19.730469 8.664062 Z M 7.125 21.113281 L 7.359375 20.6875 L 7.441406 20.734375 L 7.351562 20.898438 L 7.492188 20.976562 L 7.582031 20.8125 L 7.664062 20.855469 L 7.429688 21.28125 L 7.347656 21.238281 L 7.449219 21.054688 L 7.308594 20.976562 L 7.207031 21.160156 Z M 7.773438 21.453125 L 7.683594 21.414062 L 8.0625 21.050781 L 8.136719 21.085938 L 8.105469 21.605469 L 8.015625 21.566406 L 8.023438 21.421875 L 7.878906 21.355469 L 7.773438 21.453125 M 8.042969 21.191406 L 7.945312 21.285156 L 8.03125 21.324219 Z M 8.457031 21.75 L 8.574219 21.449219 L 8.652344 21.820312 L 8.730469 21.851562 L 8.902344 21.394531 L 8.816406 21.363281 L 8.707031 21.65625 L 8.625 21.292969 L 8.542969 21.261719 L 8.371094 21.714844 Z M 9.070312 21.800781 C 9.054688 21.847656 9.054688 21.890625 9.074219 21.929688 C 9.089844 21.964844 9.117188 21.992188 9.15625 22.003906 C 9.199219 22.015625 9.242188 22.011719 9.277344 21.992188 C 9.3125 21.972656 9.339844 21.9375 9.351562 21.894531 C 9.363281 21.863281 9.363281 21.832031 9.351562 21.804688 C 9.339844 21.773438 9.324219 21.75 9.296875 21.730469 L 9.269531 21.710938 C 9.261719 21.707031 9.25 21.699219 9.242188 21.691406 C 9.234375 21.6875 9.230469 21.679688 9.222656 21.671875 C 9.222656 21.667969 9.222656 21.664062 9.222656 21.660156 C 9.222656 21.652344 9.222656 21.648438 9.226562 21.644531 C 9.230469 21.625 9.238281 21.613281 9.25 21.609375 C 9.257812 21.601562 9.273438 21.601562 9.289062 21.605469 C 9.300781 21.609375 9.3125 21.617188 9.316406 21.628906 C 9.320312 21.640625 9.320312 21.65625 9.316406 21.679688 L 9.398438 21.703125 C 9.410156 21.660156 9.410156 21.621094 9.394531 21.585938 C 9.378906 21.554688 9.351562 21.535156 9.316406 21.523438 C 9.277344 21.511719 9.238281 21.511719 9.207031 21.53125 C 9.171875 21.550781 9.148438 21.578125 9.136719 21.621094 C 9.132812 21.632812 9.132812 21.648438 9.132812 21.660156 C 9.132812 21.675781 9.132812 21.691406 9.140625 21.703125 C 9.148438 21.71875 9.15625 21.734375 9.171875 21.75 C 9.1875 21.765625 9.199219 21.777344 9.21875 21.789062 C 9.242188 21.804688 9.253906 21.816406 9.261719 21.824219 C 9.269531 21.835938 9.269531 21.851562 9.261719 21.871094 C 9.257812 21.894531 9.246094 21.90625 9.234375 21.914062 C 9.21875 21.921875 9.203125 21.921875 9.183594 21.917969 C 9.167969 21.914062 9.15625 21.902344 9.148438 21.886719 C 9.140625 21.871094 9.140625 21.851562 9.148438 21.824219 Z M 9.855469 22.183594 L 9.878906 22.097656 L 9.710938 22.054688 L 9.738281 21.949219 L 9.902344 21.988281 L 9.925781 21.90625 L 9.757812 21.863281 L 9.785156 21.753906 L 9.953125 21.796875 L 9.972656 21.710938 L 9.714844 21.648438 L 9.597656 22.117188 Z M 10.191406 22.007812 C 10.1875 22.039062 10.1875 22.074219 10.191406 22.105469 C 10.199219 22.132812 10.207031 22.164062 10.222656 22.1875 C 10.242188 22.21875 10.265625 22.246094 10.296875 22.265625 C 10.324219 22.285156 10.355469 22.296875 10.390625 22.304688 C 10.425781 22.3125 10.460938 22.308594 10.492188 22.300781 C 10.527344 22.292969 10.558594 22.277344 10.585938 22.257812 C 10.613281 22.238281 10.632812 22.214844 10.648438 22.1875 C 10.664062 22.160156 10.675781 22.128906 10.683594 22.097656 C 10.6875 22.0625 10.6875 22.03125 10.679688 22 C 10.671875 21.964844 10.660156 21.933594 10.640625 21.90625 C 10.601562 21.855469 10.546875 21.816406 10.480469 21.808594 C 10.449219 21.800781 10.417969 21.800781 10.386719 21.808594 C 10.355469 21.816406 10.324219 21.828125 10.300781 21.847656 C 10.269531 21.863281 10.246094 21.890625 10.230469 21.917969 C 10.210938 21.945312 10.199219 21.976562 10.191406 22.007812 M 10.285156 22.027344 C 10.289062 22.003906 10.296875 21.988281 10.308594 21.96875 C 10.320312 21.949219 10.335938 21.933594 10.355469 21.921875 C 10.371094 21.910156 10.386719 21.902344 10.40625 21.898438 C 10.425781 21.894531 10.445312 21.894531 10.464844 21.898438 C 10.488281 21.902344 10.507812 21.910156 10.523438 21.921875 C 10.539062 21.933594 10.554688 21.949219 10.566406 21.96875 C 10.578125 21.984375 10.585938 22.003906 10.589844 22.023438 C 10.59375 22.042969 10.59375 22.058594 10.589844 22.078125 C 10.582031 22.125 10.558594 22.164062 10.523438 22.1875 C 10.492188 22.210938 10.453125 22.222656 10.40625 22.214844 C 10.386719 22.210938 10.371094 22.203125 10.351562 22.191406 C 10.335938 22.179688 10.320312 22.164062 10.308594 22.148438 C 10.296875 22.128906 10.289062 22.113281 10.285156 22.089844 C 10.28125 22.070312 10.28125 22.046875 10.285156 22.027344 Z M 11.375 21.933594 L 11.355469 22.238281 C 11.355469 22.261719 11.355469 22.28125 11.355469 22.304688 C 11.359375 22.328125 11.363281 22.347656 11.375 22.363281 C 11.386719 22.386719 11.40625 22.40625 11.429688 22.417969 C 11.449219 22.433594 11.476562 22.4375 11.507812 22.441406 C 11.535156 22.441406 11.5625 22.4375 11.585938 22.429688 C 11.605469 22.417969 11.625 22.402344 11.644531 22.382812 C 11.652344 22.367188 11.664062 22.347656 11.667969 22.328125 C 11.671875 22.3125 11.675781 22.289062 11.675781 22.261719 L 11.695312 21.957031 L 11.601562 21.949219 L 11.582031 22.253906 C 11.582031 22.292969 11.574219 22.316406 11.566406 22.332031 C 11.554688 22.34375 11.539062 22.351562 11.511719 22.351562 C 11.484375 22.347656 11.464844 22.339844 11.457031 22.324219 C 11.449219 22.308594 11.449219 22.285156 11.449219 22.246094 L 11.46875 21.941406 Z M 11.972656 22.453125 L 11.96875 21.964844 L 12.058594 21.964844 L 12.265625 22.277344 L 12.261719 21.964844 L 12.355469 21.964844 L 12.355469 22.449219 L 12.273438 22.449219 L 12.066406 22.128906 L 12.066406 22.449219 Z M 12.691406 22.433594 L 12.65625 21.949219 L 12.75 21.941406 L 12.785156 22.425781 Z M 13.265625 22.378906 L 13.019531 21.921875 L 13.113281 21.90625 L 13.273438 22.210938 L 13.351562 21.878906 L 13.445312 21.867188 L 13.324219 22.371094 Z M 13.765625 22.304688 L 13.671875 21.828125 L 13.933594 21.773438 L 13.949219 21.859375 L 13.78125 21.894531 L 13.800781 22.003906 L 13.972656 21.96875 L 13.988281 22.054688 L 13.816406 22.089844 L 13.839844 22.199219 L 14.007812 22.164062 L 14.027344 22.253906 Z M 14.515625 21.875 C 14.503906 21.90625 14.480469 21.933594 14.453125 21.949219 L 14.644531 22.101562 L 14.53125 22.128906 L 14.355469 21.984375 L 14.351562 21.984375 L 14.398438 22.164062 L 14.3125 22.1875 L 14.1875 21.71875 L 14.304688 21.6875 C 14.328125 21.679688 14.347656 21.675781 14.363281 21.671875 C 14.386719 21.671875 14.40625 21.671875 14.421875 21.675781 C 14.445312 21.683594 14.464844 21.695312 14.484375 21.714844 C 14.5 21.734375 14.515625 21.757812 14.519531 21.78125 C 14.527344 21.816406 14.527344 21.847656 14.515625 21.875 M 14.398438 21.765625 C 14.386719 21.761719 14.363281 21.761719 14.335938 21.769531 L 14.296875 21.777344 L 14.328125 21.902344 L 14.363281 21.890625 C 14.394531 21.882812 14.414062 21.875 14.425781 21.863281 C 14.433594 21.847656 14.4375 21.832031 14.433594 21.808594 C 14.425781 21.789062 14.414062 21.773438 14.398438 21.765625 Z M 14.929688 21.84375 C 14.941406 21.871094 14.953125 21.886719 14.96875 21.894531 C 14.980469 21.90625 14.996094 21.90625 15.011719 21.898438 C 15.03125 21.894531 15.042969 21.882812 15.050781 21.871094 C 15.058594 21.855469 15.058594 21.839844 15.050781 21.820312 C 15.042969 21.800781 15.035156 21.785156 15.023438 21.78125 C 15.011719 21.777344 14.992188 21.773438 14.964844 21.777344 C 14.945312 21.777344 14.925781 21.777344 14.90625 21.773438 C 14.886719 21.769531 14.867188 21.761719 14.851562 21.753906 C 14.839844 21.746094 14.828125 21.734375 14.820312 21.722656 C 14.8125 21.710938 14.804688 21.699219 14.800781 21.6875 C 14.789062 21.644531 14.789062 21.609375 14.804688 21.574219 C 14.820312 21.539062 14.847656 21.515625 14.886719 21.503906 C 14.925781 21.492188 14.957031 21.492188 14.988281 21.511719 C 15.023438 21.527344 15.046875 21.558594 15.066406 21.601562 L 14.980469 21.628906 C 14.972656 21.609375 14.964844 21.597656 14.953125 21.589844 C 14.941406 21.582031 14.929688 21.582031 14.914062 21.585938 C 14.898438 21.59375 14.890625 21.601562 14.882812 21.613281 C 14.878906 21.625 14.878906 21.636719 14.886719 21.65625 C 14.886719 21.660156 14.890625 21.664062 14.890625 21.667969 C 14.894531 21.671875 14.898438 21.675781 14.902344 21.679688 C 14.910156 21.683594 14.921875 21.683594 14.929688 21.683594 C 14.9375 21.683594 14.949219 21.683594 14.960938 21.683594 L 14.996094 21.683594 C 15.03125 21.683594 15.058594 21.691406 15.082031 21.710938 C 15.109375 21.726562 15.125 21.75 15.136719 21.78125 C 15.152344 21.828125 15.148438 21.867188 15.132812 21.90625 C 15.113281 21.945312 15.085938 21.972656 15.042969 21.984375 C 15.003906 22 14.964844 21.996094 14.929688 21.976562 C 14.894531 21.953125 14.867188 21.921875 14.851562 21.871094 Z M 15.484375 21.816406 L 15.304688 21.363281 L 15.390625 21.328125 L 15.570312 21.78125 Z M 15.933594 21.625 L 15.769531 21.261719 L 15.691406 21.300781 L 15.652344 21.21875 L 15.894531 21.109375 L 15.933594 21.1875 L 15.855469 21.226562 L 16.019531 21.585938 Z M 16.542969 21.328125 L 16.460938 21.371094 L 16.378906 21.210938 L 16.101562 21.007812 L 16.191406 20.960938 L 16.371094 21.097656 L 16.359375 20.875 L 16.449219 20.828125 L 16.460938 21.171875 Z M 16.542969 21.328125 "
    />
    <path
      style="
        stroke: none;
        fill-rule: nonzero;
        fill: rgb(60.784314%, 16.862745%, 12.54902%);
        fill-opacity: 1;
      "
      d="M 2.730469 9.3125 C 2.726562 9.328125 2.625 9.707031 2.933594 10.027344 C 2.9375 10.03125 4.066406 10.996094 4.066406 10.996094 L 4.160156 11.078125 L 4.179688 10.953125 C 4.707031 7.058594 8.082031 4.117188 12.03125 4.117188 L 12.03125 3.980469 C 8.054688 3.980469 4.65625 6.914062 4.066406 10.816406 C 3.71875 10.519531 3.371094 10.222656 3.027344 9.925781 C 2.878906 9.773438 2.847656 9.601562 2.847656 9.484375 C 2.847656 9.40625 2.859375 9.351562 2.863281 9.347656 C 4.042969 5.316406 7.8125 2.496094 12.03125 2.496094 L 12.03125 2.359375 C 7.753906 2.359375 3.929688 5.21875 2.730469 9.3125 Z M 2.730469 9.3125 "
    />
    <path
      style="
        stroke: none;
        fill-rule: nonzero;
        fill: rgb(60.784314%, 16.862745%, 12.54902%);
        fill-opacity: 1;
      "
      d="M 4.164062 10.652344 C 4.164062 11.222656 4.652344 11.691406 5.25 11.691406 C 5.851562 11.691406 6.339844 11.222656 6.339844 10.652344 C 6.339844 10.078125 5.851562 9.609375 5.25 9.609375 C 4.652344 9.609375 4.164062 10.078125 4.164062 10.652344 M 4.300781 10.652344 C 4.300781 10.152344 4.726562 9.746094 5.25 9.746094 C 5.773438 9.746094 6.203125 10.152344 6.203125 10.652344 C 6.203125 11.148438 5.773438 11.554688 5.25 11.554688 C 4.726562 11.554688 4.300781 11.148438 4.300781 10.652344 Z M 4.300781 10.652344 "
    />
    <path
      style="
        stroke: none;
        fill-rule: nonzero;
        fill: rgb(60.784314%, 16.862745%, 12.54902%);
        fill-opacity: 1;
      "
      d="M 4.628906 10.324219 L 4.621094 10.453125 C 4.621094 10.59375 4.636719 10.796875 4.800781 10.945312 C 4.875 11.011719 4.972656 11.050781 5.078125 11.050781 C 5.261719 11.050781 5.421875 10.929688 5.46875 10.757812 L 5.480469 10.707031 L 4.640625 10.226562 L 4.628906 10.324219 M 4.894531 10.84375 C 4.796875 10.757812 4.757812 10.636719 4.757812 10.453125 L 4.757812 10.449219 C 4.882812 10.519531 5.21875 10.714844 5.304688 10.761719 C 5.261719 10.851562 5.179688 10.914062 5.078125 10.914062 C 5.007812 10.914062 4.941406 10.890625 4.894531 10.84375 Z M 4.894531 10.84375 "
    />
    <path
      style="
        stroke: none;
        fill-rule: nonzero;
        fill: rgb(60.784314%, 16.862745%, 12.54902%);
        fill-opacity: 1;
      "
      d="M 4.425781 11.242188 C 4.285156 11.070312 4.191406 10.878906 4.191406 10.644531 C 4.191406 10.09375 4.660156 9.644531 5.238281 9.644531 C 5.402344 9.644531 5.558594 9.683594 5.695312 9.746094 L 5.691406 9.742188 L 4.574219 9.132812 C 4.351562 9.707031 4.175781 10.371094 4.089844 10.941406 L 4.425781 11.210938 Z M 4.425781 11.242188 "
    />
    <path
      style="
        stroke: none;
        fill-rule: nonzero;
        fill: rgb(60.784314%, 16.862745%, 12.54902%);
        fill-opacity: 1;
      "
      d="M 4.511719 9.109375 C 4.289062 9.683594 4.109375 10.347656 4.023438 10.929688 L 4.015625 10.96875 C 4.015625 10.96875 4.269531 11.175781 4.335938 11.226562 C 4.351562 11.246094 4.355469 11.265625 4.371094 11.285156 L 4.492188 11.433594 L 4.492188 11.179688 L 4.4375 11.132812 C 4.324219 10.976562 4.261719 10.820312 4.261719 10.644531 C 4.261719 10.132812 4.699219 9.714844 5.238281 9.714844 C 5.390625 9.714844 5.535156 9.746094 5.667969 9.808594 C 5.667969 9.808594 5.699219 9.738281 5.714844 9.707031 L 5.726562 9.683594 C 5.722656 9.683594 5.722656 9.683594 5.722656 9.683594 C 5.722656 9.683594 5.722656 9.679688 5.722656 9.679688 L 4.539062 9.035156 L 4.511719 9.109375 M 4.613281 9.230469 C 4.6875 9.273438 4.957031 9.417969 5.253906 9.578125 C 5.25 9.578125 5.242188 9.578125 5.238281 9.578125 C 4.902344 9.578125 4.582031 9.726562 4.367188 9.988281 C 4.4375 9.734375 4.519531 9.480469 4.613281 9.230469 M 4.167969 10.886719 C 4.171875 10.898438 4.171875 10.910156 4.175781 10.921875 C 4.171875 10.917969 4.164062 10.914062 4.164062 10.914062 C 4.164062 10.90625 4.167969 10.894531 4.167969 10.886719 Z M 4.167969 10.886719 "
    />
    <path
      style="
        stroke: none;
        fill-rule: nonzero;
        fill: rgb(60.784314%, 16.862745%, 12.54902%);
        fill-opacity: 1;
      "
      d="M 5.222656 9.609375 C 4.738281 9.609375 4.316406 9.917969 4.1875 10.363281 L 4.175781 10.402344 L 4.210938 10.4375 L 4.808594 10.953125 L 4.898438 10.851562 L 4.882812 10.839844 C 4.789062 10.753906 4.75 10.636719 4.75 10.453125 L 4.757812 10.355469 C 4.808594 10.070312 5.011719 9.757812 5.34375 9.757812 L 5.496094 9.757812 C 5.496094 9.757812 5.496094 9.699219 5.496094 9.660156 L 5.503906 9.621094 L 5.476562 9.621094 C 5.433594 9.617188 5.292969 9.609375 5.292969 9.609375 L 5.222656 9.609375 M 4.898438 9.804688 C 4.75 9.945312 4.65625 10.144531 4.625 10.335938 C 4.625 10.328125 4.613281 10.453125 4.613281 10.453125 C 4.613281 10.503906 4.621094 10.558594 4.628906 10.621094 C 4.484375 10.496094 4.371094 10.394531 4.335938 10.367188 C 4.425781 10.101562 4.632812 9.898438 4.898438 9.804688 Z M 17.679688 10.652344 C 17.679688 11.222656 18.164062 11.691406 18.765625 11.691406 C 19.363281 11.691406 19.851562 11.222656 19.851562 10.652344 C 19.851562 10.078125 19.363281 9.609375 18.765625 9.609375 C 18.164062 9.609375 17.679688 10.078125 17.679688 10.652344 M 17.816406 10.652344 C 17.816406 10.152344 18.242188 9.746094 18.765625 9.746094 C 19.289062 9.746094 19.714844 10.152344 19.714844 10.652344 C 19.714844 11.148438 19.289062 11.554688 18.765625 11.554688 C 18.242188 11.554688 17.816406 11.148438 17.816406 10.652344 Z M 17.816406 10.652344 "
    />
    <path
      style="
        stroke: none;
        fill-rule: nonzero;
        fill: rgb(60.784314%, 16.862745%, 12.54902%);
        fill-opacity: 1;
      "
      d="M 19.285156 10.277344 L 18.535156 10.707031 L 18.550781 10.757812 C 18.59375 10.929688 18.753906 11.050781 18.941406 11.050781 C 19.042969 11.050781 19.140625 11.011719 19.214844 10.945312 C 19.378906 10.796875 19.398438 10.59375 19.398438 10.453125 L 19.375 10.21875 L 19.285156 10.277344 M 19.261719 10.449219 L 19.261719 10.453125 C 19.261719 10.636719 19.21875 10.757812 19.125 10.84375 C 19.074219 10.890625 19.007812 10.914062 18.941406 10.914062 C 18.835938 10.914062 18.753906 10.851562 18.710938 10.761719 C 18.796875 10.714844 19.132812 10.519531 19.261719 10.449219 Z M 19.261719 10.449219 "
    />
    <path
      style="
        stroke: none;
        fill-rule: nonzero;
        fill: rgb(60.784314%, 16.862745%, 12.54902%);
        fill-opacity: 1;
      "
      d="M 19.824219 10.644531 C 19.824219 10.09375 19.355469 9.644531 18.777344 9.644531 C 18.617188 9.644531 18.464844 9.679688 18.320312 9.746094 L 18.324219 9.742188 L 19.441406 9.132812 C 19.664062 9.707031 19.839844 10.363281 19.945312 10.917969 L 19.613281 11.199219 C 19.613281 11.199219 19.824219 10.878906 19.824219 10.644531 Z M 19.824219 10.644531 "
    />
    <path
      style="
        stroke: none;
        fill-rule: nonzero;
        fill: rgb(60.784314%, 16.862745%, 12.54902%);
        fill-opacity: 1;
      "
      d="M 19.40625 9.074219 L 18.292969 9.679688 L 18.292969 9.683594 C 18.292969 9.683594 18.292969 9.683594 18.289062 9.683594 C 18.289062 9.683594 18.300781 9.699219 18.304688 9.703125 L 18.347656 9.808594 C 18.480469 9.746094 18.625 9.714844 18.777344 9.714844 C 19.316406 9.714844 19.757812 10.132812 19.757812 10.644531 C 19.757812 10.855469 19.558594 11.15625 19.554688 11.160156 L 19.65625 11.25 L 20.019531 10.945312 L 20.011719 10.90625 C 19.898438 10.296875 19.710938 9.640625 19.503906 9.109375 L 19.476562 9.035156 L 19.40625 9.074219 M 19.402344 9.230469 C 19.496094 9.480469 19.582031 9.738281 19.65625 9.996094 C 19.441406 9.730469 19.117188 9.578125 18.777344 9.578125 C 18.773438 9.578125 18.769531 9.578125 18.761719 9.578125 C 19.058594 9.417969 19.328125 9.273438 19.402344 9.230469 M 19.859375 10.84375 C 19.863281 10.859375 19.867188 10.875 19.871094 10.894531 C 19.863281 10.898438 19.84375 10.917969 19.828125 10.929688 C 19.839844 10.902344 19.851562 10.871094 19.859375 10.84375 Z M 19.859375 10.84375 "
    />
    <path
      style="
        stroke: none;
        fill-rule: nonzero;
        fill: rgb(60.784314%, 16.862745%, 12.54902%);
        fill-opacity: 1;
      "
      d="M 18.539062 9.621094 L 18.511719 9.621094 L 18.519531 9.660156 L 18.519531 9.757812 L 18.671875 9.757812 C 19.003906 9.757812 19.207031 10.070312 19.257812 10.359375 C 19.257812 10.355469 19.265625 10.453125 19.265625 10.453125 C 19.265625 10.636719 19.226562 10.753906 19.136719 10.835938 C 19.132812 10.839844 19.117188 10.851562 19.117188 10.851562 L 19.207031 10.953125 L 19.839844 10.410156 L 19.828125 10.363281 C 19.699219 9.917969 19.277344 9.609375 18.796875 9.609375 L 18.722656 9.609375 C 18.722656 9.609375 18.582031 9.617188 18.539062 9.621094 M 19.402344 10.453125 L 19.390625 10.328125 C 19.359375 10.140625 19.265625 9.945312 19.117188 9.804688 C 19.382812 9.898438 19.589844 10.101562 19.679688 10.367188 C 19.644531 10.394531 19.53125 10.496094 19.386719 10.621094 C 19.398438 10.566406 19.402344 10.507812 19.402344 10.453125 Z M 19.402344 10.453125 "
    />
    <path
      style="
        stroke: none;
        fill-rule: nonzero;
        fill: rgb(60.784314%, 16.862745%, 12.54902%);
        fill-opacity: 1;
      "
      d="M 11.988281 2.496094 C 16.207031 2.496094 19.976562 5.316406 21.15625 9.347656 C 21.160156 9.355469 21.171875 9.40625 21.171875 9.484375 C 21.171875 9.652344 21.105469 9.8125 20.988281 9.933594 C 20.988281 9.933594 20.21875 10.589844 19.953125 10.816406 C 19.363281 6.914062 15.964844 3.980469 11.988281 3.980469 L 11.988281 4.117188 C 15.9375 4.117188 19.3125 7.058594 19.839844 10.953125 L 19.859375 11.078125 L 21.082031 10.03125 C 21.394531 9.707031 21.292969 9.328125 21.289062 9.3125 C 20.089844 5.21875 16.265625 2.359375 11.988281 2.359375 Z M 11.988281 2.496094 "
    />
    <path
      style="
        stroke: none;
        fill-rule: nonzero;
        fill: rgb(11.764706%, 40.784314%, 26.27451%);
        fill-opacity: 1;
      "
      d="M 6.722656 20.777344 L 5.839844 20.902344 L 6.441406 21.25 L 6.917969 20.75 L 6.722656 20.777344 M 6.546875 20.941406 C 6.484375 21.007812 6.445312 21.046875 6.417969 21.078125 C 6.382812 21.058594 6.335938 21.03125 6.253906 20.984375 C 6.375 20.964844 6.429688 20.957031 6.546875 20.941406 Z M 17.207031 20.875 L 17.527344 21.242188 L 18.132812 20.839844 L 17.097656 20.746094 L 17.207031 20.875 M 17.421875 20.914062 C 17.539062 20.921875 17.609375 20.929688 17.734375 20.941406 C 17.648438 21 17.59375 21.035156 17.550781 21.0625 Z M 17.421875 20.914062 "
    />
    <path
      style="
        stroke: none;
        fill-rule: nonzero;
        fill: rgb(11.764706%, 40.784314%, 26.27451%);
        fill-opacity: 1;
      "
      d="M 17.953125 20.789062 C 16.175781 22.007812 14.089844 22.65625 11.925781 22.65625 C 9.785156 22.640625 7.722656 21.996094 5.964844 20.789062 L 5.90625 20.746094 L 4.710938 22.769531 L 4.761719 22.804688 C 6.886719 24.21875 9.359375 24.972656 11.921875 24.984375 L 11.941406 24.984375 C 14.523438 24.984375 17.019531 24.230469 19.15625 22.804688 L 19.210938 22.769531 L 18.011719 20.746094 L 17.953125 20.789062 M 11.929688 22.792969 C 14.089844 22.792969 16.179688 22.152344 17.96875 20.941406 L 19.023438 22.726562 C 16.921875 24.113281 14.472656 24.847656 11.941406 24.847656 L 11.921875 24.847656 C 9.410156 24.835938 6.980469 24.101562 4.894531 22.726562 L 5.949219 20.941406 C 7.71875 22.136719 9.78125 22.78125 11.929688 22.792969 Z M 13.003906 0.976562 C 12.878906 1.074219 12.785156 1.203125 12.738281 1.359375 L 12.738281 1.355469 C 12.671875 1.621094 12.464844 1.832031 12.203125 1.910156 L 12.199219 1.910156 C 12.574219 1.953125 12.917969 1.730469 13.03125 1.382812 L 13.03125 1.390625 C 13.097656 1.21875 13.222656 1.082031 13.382812 0.996094 L 13.382812 0.992188 C 13.242188 0.894531 13.132812 0.753906 13.082031 0.585938 L 13.082031 0.589844 C 13 0.238281 12.671875 -0.0117188 12.296875 0 L 12.300781 0 C 12.554688 0.0976562 12.742188 0.324219 12.789062 0.597656 L 12.789062 0.589844 C 12.824219 0.738281 12.898438 0.871094 13.007812 0.972656 Z M 23.972656 13.097656 C 23.914062 13.703125 23.8125 14.285156 23.671875 14.863281 C 23.027344 14.996094 22.648438 15.234375 22.648438 15.234375 C 22.3125 14.476562 21.867188 14.261719 21.867188 14.261719 L 21.871094 14.261719 C 21.992188 13.71875 22.070312 13.171875 22.105469 12.617188 L 22.105469 12.621094 C 22.613281 12.777344 22.980469 13.59375 23.015625 13.597656 L 23.019531 13.597656 C 23.40625 13.242188 23.734375 13.171875 23.949219 13.105469 Z M 23.972656 13.097656 "
    />
    <path
      style="
        stroke: none;
        fill-rule: nonzero;
        fill: rgb(11.764706%, 40.784314%, 26.27451%);
        fill-opacity: 1;
      "
      d="M 23.992188 12.8125 C 24.007812 12.542969 24.019531 12.269531 24.019531 11.996094 C 24.019531 11.519531 23.996094 11.070312 23.945312 10.613281 L 23.941406 10.605469 C 23.90625 10.832031 23.757812 10.941406 23.492188 11.148438 L 23.496094 11.144531 C 23.28125 11.351562 23.230469 11.386719 23.121094 11.613281 L 23.117188 11.613281 C 23.082031 11.605469 22.980469 11.308594 22.472656 11.148438 C 22.238281 11.066406 22.117188 10.988281 22.046875 10.816406 L 22.050781 10.816406 C 22.097656 11.210938 22.121094 11.613281 22.121094 12.023438 C 22.121094 12.15625 22.128906 12.304688 22.121094 12.433594 L 22.121094 12.429688 C 22.628906 12.585938 23.023438 13.308594 23.054688 13.316406 L 23.058594 13.316406 C 23.449219 12.960938 23.773438 12.886719 23.992188 12.820312 Z M 23.992188 12.8125 "
    />
    <path
      style="
        stroke: none;
        fill-rule: nonzero;
        fill: rgb(11.764706%, 40.784314%, 26.27451%);
        fill-opacity: 1;
      "
      d="M 21.636719 8.925781 C 21.785156 9.375 21.886719 9.800781 21.96875 10.273438 C 22.019531 10.613281 22.101562 10.773438 22.425781 10.886719 C 22.933594 11.042969 23.070312 11.300781 23.105469 11.308594 C 23.214844 11.082031 23.269531 11.046875 23.480469 10.839844 L 23.476562 10.84375 C 23.804688 10.589844 23.90625 10.464844 23.871094 10.089844 C 23.785156 9.570312 23.675781 9.074219 23.527344 8.578125 L 23.527344 8.597656 C 23.519531 8.953125 23.351562 9.109375 23.1875 9.273438 L 23.191406 9.269531 C 23.007812 9.503906 22.980469 9.570312 22.902344 9.808594 C 22.867188 9.804688 22.742188 9.617188 22.195312 9.433594 C 21.90625 9.347656 21.742188 9.089844 21.640625 8.929688 Z M 21.636719 8.925781 "
    />
    <path
      style="
        stroke: none;
        fill-rule: nonzero;
        fill: rgb(11.764706%, 40.784314%, 26.27451%);
        fill-opacity: 1;
      "
      d="M 21.5 8.535156 C 21.546875 8.699219 21.765625 8.914062 22.058594 8.980469 C 22.617188 9.132812 22.75 9.3125 22.785156 9.3125 L 22.789062 9.3125 C 22.851562 9.070312 22.875 9.003906 23.042969 8.761719 L 23.039062 8.761719 C 23.222656 8.554688 23.4375 8.285156 23.28125 7.835938 C 23.15625 7.503906 23.015625 7.175781 22.863281 6.855469 L 22.867188 6.875 C 22.859375 7.039062 22.796875 7.265625 22.613281 7.472656 L 22.617188 7.46875 C 22.523438 7.609375 22.484375 7.671875 22.355469 7.953125 L 22.351562 7.953125 C 22.113281 7.894531 22.0625 7.859375 21.667969 7.839844 L 21.664062 7.839844 C 21.371094 7.773438 21.191406 7.675781 21.082031 7.558594 L 21.078125 7.554688 C 21.238281 7.871094 21.378906 8.199219 21.5 8.53125 Z M 21.5 8.535156 "
    />
    <path
      style="
        stroke: none;
        fill-rule: nonzero;
        fill: rgb(11.764706%, 40.784314%, 26.27451%);
        fill-opacity: 1;
      "
      d="M 22.542969 6.246094 C 22.609375 6.359375 22.703125 6.71875 22.429688 7.046875 L 22.433594 7.042969 C 22.34375 7.1875 22.308594 7.25 22.1875 7.535156 L 22.183594 7.535156 C 21.941406 7.484375 21.890625 7.449219 21.496094 7.441406 L 21.492188 7.441406 C 21.128906 7.363281 20.933594 7.246094 20.839844 7.089844 L 20.828125 7.078125 C 20.632812 6.738281 20.421875 6.40625 20.1875 6.089844 L 20.199219 6.097656 C 20.371094 6.21875 20.65625 6.25 20.886719 6.214844 L 20.882812 6.21875 C 21.097656 6.171875 21.207031 6.136719 21.453125 6.164062 C 21.546875 5.867188 21.621094 5.828125 21.691406 5.679688 L 21.691406 5.683594 C 21.800781 5.460938 21.816406 5.210938 21.785156 5.050781 L 21.78125 5.042969 C 22.0625 5.429688 22.316406 5.832031 22.546875 6.246094 Z M 22.542969 6.246094 "
    />
    <path
      style="
        stroke: none;
        fill-rule: nonzero;
        fill: rgb(11.764706%, 40.784314%, 26.27451%);
        fill-opacity: 1;
      "
      d="M 21.390625 4.523438 C 21.472656 4.625 21.519531 4.96875 21.378906 5.273438 L 21.382812 5.269531 C 21.316406 5.425781 21.296875 5.582031 21.257812 5.855469 L 21.253906 5.855469 C 21.078125 5.835938 21.011719 5.832031 20.730469 5.863281 L 20.734375 5.859375 C 20.449219 5.914062 20.007812 5.867188 19.867188 5.671875 L 19.863281 5.671875 C 19.652344 5.410156 19.429688 5.164062 19.191406 4.925781 L 19.199219 4.917969 C 19.339844 5.066406 19.699219 5.046875 19.953125 4.945312 L 19.949219 4.949219 C 20.097656 4.878906 20.335938 4.867188 20.511719 4.867188 L 20.515625 4.867188 C 20.523438 4.589844 20.570312 4.488281 20.621094 4.328125 L 20.617188 4.332031 C 20.722656 4.011719 20.710938 3.800781 20.644531 3.683594 L 20.644531 3.679688 C 20.902344 3.949219 21.148438 4.226562 21.382812 4.515625 Z M 21.390625 4.523438 "
    />
    <path
      style="
        stroke: none;
        fill-rule: nonzero;
        fill: rgb(11.764706%, 40.784314%, 26.27451%);
        fill-opacity: 1;
      "
      d="M 18.953125 4.675781 C 19.097656 4.820312 19.457031 4.789062 19.707031 4.679688 L 19.703125 4.683594 C 19.847656 4.613281 20.082031 4.597656 20.261719 4.59375 L 20.265625 4.589844 C 20.265625 4.3125 20.3125 4.210938 20.355469 4.050781 L 20.355469 4.054688 C 20.449219 3.730469 20.480469 3.484375 20.359375 3.394531 L 20.371094 3.40625 C 20.09375 3.140625 19.804688 2.882812 19.503906 2.644531 L 19.5 2.636719 C 19.5625 2.753906 19.613281 2.9375 19.523438 3.226562 L 19.527344 3.222656 C 19.484375 3.382812 19.433594 3.488281 19.433594 3.765625 L 19.433594 3.761719 C 19.253906 3.765625 19.019531 3.785156 18.875 3.859375 L 18.878906 3.855469 C 18.628906 3.964844 18.371094 4.082031 18.136719 3.984375 L 18.121094 3.980469 C 18.410156 4.195312 18.683594 4.425781 18.945312 4.671875 Z M 18.953125 4.675781 "
    />
    <path
      style="
        stroke: none;
        fill-rule: nonzero;
        fill: rgb(11.764706%, 40.784314%, 26.27451%);
        fill-opacity: 1;
      "
      d="M 18.984375 2.25 C 18.761719 2.089844 18.535156 1.9375 18.304688 1.796875 L 18.292969 1.785156 C 18.347656 1.898438 18.394531 2.214844 18.355469 2.363281 L 18.359375 2.359375 C 18.3125 2.664062 18.320312 2.867188 18.34375 2.894531 L 18.339844 2.902344 C 18.234375 2.890625 17.875 3.003906 17.753906 3.113281 L 17.757812 3.109375 C 17.503906 3.292969 17.199219 3.339844 17.164062 3.332031 L 17.15625 3.332031 C 17.363281 3.457031 17.570312 3.585938 17.769531 3.726562 L 17.765625 3.71875 C 18.03125 3.925781 18.179688 3.917969 18.625 3.675781 L 18.621094 3.679688 C 18.765625 3.605469 19.011719 3.578125 19.1875 3.570312 L 19.191406 3.574219 C 19.179688 3.332031 19.203125 3.238281 19.226562 3.078125 L 19.222656 3.082031 C 19.292969 2.644531 19.203125 2.425781 18.980469 2.25 Z M 18.984375 2.25 "
    />
    <path
      style="
        stroke: none;
        fill-rule: nonzero;
        fill: rgb(11.764706%, 40.784314%, 26.27451%);
        fill-opacity: 1;
      "
      d="M 16.535156 2.988281 C 16.441406 2.941406 16.335938 2.886719 16.238281 2.84375 C 16.273438 2.84375 16.550781 2.773438 16.773438 2.554688 L 16.769531 2.5625 C 16.875 2.4375 17.214844 2.265625 17.320312 2.261719 L 17.324219 2.261719 C 17.296875 2.238281 17.15625 1.976562 17.160156 1.667969 L 17.15625 1.671875 C 17.175781 1.511719 17.070312 1.164062 17 1.085938 C 17.183594 1.167969 17.34375 1.25 17.523438 1.339844 L 17.53125 1.347656 C 17.800781 1.488281 17.941406 1.691406 17.929688 2.160156 L 17.933594 2.15625 C 17.933594 2.316406 17.921875 2.414062 17.96875 2.652344 L 17.964844 2.648438 C 17.742188 2.75 17.671875 2.816406 17.539062 2.90625 L 17.539062 2.902344 C 17.140625 3.199219 16.890625 3.183594 16.59375 3.019531 C 16.574219 3.011719 16.554688 3 16.535156 2.984375 "
    />
    <path
      style="
        stroke: none;
        fill-rule: nonzero;
        fill: rgb(11.764706%, 40.784314%, 26.27451%);
        fill-opacity: 1;
      "
      d="M 16.191406 0.75 C 16.027344 0.691406 15.875 0.636719 15.710938 0.582031 L 15.707031 0.582031 C 15.929688 0.742188 16.050781 1.011719 16.027344 1.285156 L 16.027344 1.277344 C 16.023438 1.429688 16.058594 1.578125 16.136719 1.703125 L 16.140625 1.703125 C 15.992188 1.761719 15.863281 1.867188 15.777344 2.003906 L 15.777344 2 C 15.640625 2.238281 15.375 2.394531 15.105469 2.402344 L 15.101562 2.402344 C 15.203125 2.433594 15.433594 2.511719 15.457031 2.519531 C 15.78125 2.632812 16.136719 2.527344 16.339844 2.261719 L 16.335938 2.265625 C 16.457031 2.128906 16.617188 2.035156 16.800781 2.003906 L 16.796875 2.003906 C 16.695312 1.863281 16.644531 1.695312 16.652344 1.523438 L 16.648438 1.527344 C 16.683594 1.203125 16.5 0.890625 16.195312 0.75 M 13.898438 2.097656 C 13.964844 2.113281 14.070312 2.128906 14.070312 2.128906 L 14.066406 2.128906 C 14.429688 2.238281 14.808594 2.082031 14.984375 1.765625 L 14.980469 1.769531 C 15.078125 1.613281 15.226562 1.5 15.398438 1.441406 L 15.394531 1.445312 C 15.277344 1.320312 15.203125 1.160156 15.183594 0.988281 L 15.179688 0.996094 C 15.164062 0.632812 14.890625 0.328125 14.515625 0.269531 L 14.519531 0.269531 L 14.515625 0.265625 C 14.441406 0.25 14.359375 0.226562 14.285156 0.214844 L 14.28125 0.214844 C 14.523438 0.347656 14.675781 0.597656 14.679688 0.871094 L 14.683594 0.867188 C 14.695312 1.015625 14.75 1.160156 14.839844 1.277344 L 14.847656 1.273438 C 14.703125 1.351562 14.589844 1.472656 14.519531 1.617188 L 14.519531 1.613281 C 14.417969 1.859375 14.179688 2.050781 13.921875 2.09375 C 13.914062 2.097656 13.90625 2.097656 13.898438 2.097656 Z M 13.898438 2.097656 "
    />
    <path
      style="
        stroke: none;
        fill-rule: nonzero;
        fill: rgb(11.764706%, 40.784314%, 26.27451%);
        fill-opacity: 1;
      "
      d="M 13.183594 0.0585938 C 13.429688 0.171875 13.597656 0.398438 13.628906 0.675781 L 13.628906 0.667969 C 13.652344 0.816406 13.71875 0.953125 13.820312 1.066406 L 13.824219 1.0625 C 13.691406 1.152344 13.585938 1.28125 13.527344 1.429688 L 13.527344 1.425781 C 13.445312 1.6875 13.214844 1.898438 12.945312 1.960938 L 12.949219 1.960938 C 12.976562 1.960938 13.039062 1.96875 13.039062 1.96875 C 13.441406 2.027344 13.773438 1.84375 13.914062 1.507812 L 13.914062 1.515625 C 13.992188 1.351562 14.128906 1.21875 14.296875 1.148438 L 14.292969 1.148438 C 14.160156 1.039062 14.070312 0.886719 14.035156 0.71875 L 14.035156 0.722656 C 13.980469 0.363281 13.675781 0.0859375 13.300781 0.0664062 L 13.304688 0.0664062 C 13.304688 0.0664062 13.214844 0.0625 13.179688 0.0585938 Z M 22.832031 17.179688 C 22.175781 17.171875 21.777344 17.3125 21.777344 17.3125 C 21.613281 16.5 21.296875 16.035156 21.296875 16.035156 L 21.292969 16.035156 C 21.515625 15.519531 21.695312 14.988281 21.832031 14.429688 L 21.835938 14.4375 C 21.835938 14.4375 22.242188 14.71875 22.582031 15.476562 C 22.582031 15.476562 22.96875 15.242188 23.613281 15.105469 L 23.609375 15.109375 C 23.417969 15.835938 23.15625 16.519531 22.839844 17.179688 Z M 22.832031 17.179688 "
    />
    <path
      style="
        stroke: none;
        fill-rule: nonzero;
        fill: rgb(11.764706%, 40.784314%, 26.27451%);
        fill-opacity: 1;
      "
      d="M 22.785156 17.308594 C 22.402344 18.082031 21.9375 18.796875 21.402344 19.46875 L 21.398438 19.476562 C 20.976562 19.292969 20.359375 19.347656 20.359375 19.347656 C 20.375 18.707031 20.046875 18.152344 20.046875 18.152344 C 20.515625 17.542969 20.910156 16.886719 21.226562 16.179688 L 21.234375 16.164062 C 21.234375 16.164062 21.550781 16.628906 21.71875 17.441406 C 21.71875 17.441406 22.113281 17.300781 22.773438 17.308594 Z M 22.785156 17.308594 "
    />
    <path
      style="
        stroke: none;
        fill-rule: nonzero;
        fill: rgb(11.764706%, 40.784314%, 26.27451%);
        fill-opacity: 1;
      "
      d="M 18.695312 21.960938 C 19.714844 21.269531 20.589844 20.46875 21.332031 19.554688 L 21.324219 19.550781 C 20.902344 19.367188 20.285156 19.421875 20.285156 19.421875 C 20.300781 18.78125 19.988281 18.226562 19.988281 18.226562 C 19.195312 19.242188 18.214844 20.101562 17.101562 20.753906 L 17.609375 20.847656 L 18.003906 20.910156 C 18.003906 20.910156 17.855469 21.019531 18.046875 20.875 Z M 11.015625 0.976562 C 11.140625 1.074219 11.230469 1.203125 11.28125 1.359375 L 11.28125 1.355469 C 11.347656 1.621094 11.550781 1.832031 11.816406 1.910156 L 11.820312 1.910156 C 11.445312 1.953125 11.097656 1.730469 10.988281 1.382812 L 10.988281 1.390625 C 10.921875 1.21875 10.796875 1.082031 10.636719 0.996094 L 10.636719 0.992188 C 10.777344 0.894531 10.882812 0.753906 10.933594 0.585938 L 10.933594 0.589844 C 11.019531 0.238281 11.34375 -0.0117188 11.722656 0 L 11.71875 0 C 11.460938 0.0976562 11.277344 0.324219 11.230469 0.597656 L 11.230469 0.589844 C 11.195312 0.738281 11.121094 0.871094 11.011719 0.972656 L 11.011719 0.976562 Z M 0.046875 13.097656 C 0.101562 13.703125 0.207031 14.285156 0.347656 14.863281 C 0.988281 14.996094 1.367188 15.234375 1.367188 15.234375 C 1.707031 14.476562 2.148438 14.261719 2.148438 14.261719 C 2.027344 13.71875 1.949219 13.171875 1.914062 12.617188 L 1.914062 12.621094 C 1.40625 12.777344 1.035156 13.59375 1.003906 13.597656 L 1 13.597656 C 0.613281 13.242188 0.285156 13.171875 0.0664062 13.105469 Z M 0.046875 13.097656 "
    />
    <path
      style="
        stroke: none;
        fill-rule: nonzero;
        fill: rgb(11.764706%, 40.784314%, 26.27451%);
        fill-opacity: 1;
      "
      d="M 0.0273438 12.8125 C 0.0078125 12.542969 0 12.269531 0 11.996094 C 0 11.519531 0.0195312 11.070312 0.0742188 10.613281 L 0.078125 10.605469 C 0.113281 10.832031 0.261719 10.941406 0.527344 11.148438 L 0.523438 11.144531 C 0.734375 11.351562 0.789062 11.386719 0.898438 11.613281 L 0.902344 11.613281 C 0.933594 11.605469 1.035156 11.308594 1.542969 11.148438 L 1.546875 11.148438 C 1.78125 11.066406 1.898438 10.988281 1.96875 10.816406 C 1.921875 11.210938 1.898438 11.613281 1.898438 12.023438 C 1.898438 12.15625 1.890625 12.304688 1.898438 12.433594 L 1.894531 12.429688 C 1.390625 12.585938 0.996094 13.308594 0.960938 13.316406 C 0.570312 12.960938 0.242188 12.886719 0.0273438 12.820312 Z M 0.0273438 12.8125 "
    />
    <path
      style="
        stroke: none;
        fill-rule: nonzero;
        fill: rgb(11.764706%, 40.784314%, 26.27451%);
        fill-opacity: 1;
      "
      d="M 2.382812 8.925781 C 2.234375 9.375 2.128906 9.800781 2.046875 10.273438 C 2 10.613281 1.917969 10.773438 1.59375 10.886719 L 1.589844 10.886719 C 1.082031 11.042969 0.949219 11.300781 0.914062 11.308594 C 0.800781 11.082031 0.75 11.046875 0.535156 10.839844 L 0.542969 10.84375 C 0.210938 10.589844 0.109375 10.464844 0.148438 10.089844 C 0.230469 9.570312 0.34375 9.074219 0.492188 8.578125 L 0.488281 8.597656 C 0.5 8.953125 0.667969 9.109375 0.832031 9.273438 L 0.828125 9.269531 C 1.011719 9.503906 1.035156 9.570312 1.117188 9.808594 C 1.152344 9.804688 1.277344 9.617188 1.824219 9.433594 C 2.113281 9.347656 2.277344 9.089844 2.378906 8.929688 Z M 2.382812 8.925781 "
    />
    <path
      style="
        stroke: none;
        fill-rule: nonzero;
        fill: rgb(11.764706%, 40.784314%, 26.27451%);
        fill-opacity: 1;
      "
      d="M 2.519531 8.535156 C 2.472656 8.699219 2.253906 8.914062 1.960938 8.980469 L 1.957031 8.980469 C 1.402344 9.132812 1.265625 9.3125 1.234375 9.3125 L 1.230469 9.3125 C 1.164062 9.070312 1.144531 9.003906 0.976562 8.761719 L 0.980469 8.761719 C 0.796875 8.554688 0.582031 8.285156 0.738281 7.835938 C 0.863281 7.503906 1.003906 7.175781 1.15625 6.855469 L 1.152344 6.875 C 1.160156 7.039062 1.222656 7.265625 1.40625 7.472656 L 1.402344 7.46875 C 1.496094 7.609375 1.535156 7.671875 1.664062 7.953125 L 1.667969 7.953125 C 1.90625 7.894531 1.957031 7.859375 2.351562 7.839844 L 2.355469 7.839844 C 2.648438 7.773438 2.828125 7.675781 2.933594 7.558594 L 2.9375 7.554688 C 2.78125 7.871094 2.640625 8.199219 2.519531 8.53125 Z M 2.519531 8.535156 "
    />
    <path
      style="
        stroke: none;
        fill-rule: nonzero;
        fill: rgb(11.764706%, 40.784314%, 26.27451%);
        fill-opacity: 1;
      "
      d="M 1.476562 6.246094 C 1.410156 6.359375 1.3125 6.71875 1.589844 7.046875 L 1.585938 7.042969 C 1.671875 7.1875 1.710938 7.25 1.832031 7.535156 L 1.835938 7.535156 C 2.074219 7.484375 2.128906 7.449219 2.523438 7.441406 L 2.527344 7.441406 C 2.890625 7.363281 3.085938 7.246094 3.179688 7.089844 L 3.191406 7.078125 C 3.382812 6.734375 3.597656 6.40625 3.828125 6.089844 L 3.820312 6.097656 C 3.648438 6.21875 3.363281 6.25 3.132812 6.214844 L 3.136719 6.21875 C 2.921875 6.171875 2.8125 6.136719 2.566406 6.164062 C 2.472656 5.867188 2.398438 5.828125 2.324219 5.679688 L 2.328125 5.683594 C 2.214844 5.460938 2.203125 5.210938 2.234375 5.050781 L 2.234375 5.042969 C 1.957031 5.429688 1.703125 5.832031 1.472656 6.246094 Z M 1.476562 6.246094 "
    />
    <path
      style="
        stroke: none;
        fill-rule: nonzero;
        fill: rgb(11.764706%, 40.784314%, 26.27451%);
        fill-opacity: 1;
      "
      d="M 2.628906 4.523438 C 2.546875 4.625 2.5 4.96875 2.640625 5.273438 L 2.636719 5.269531 C 2.703125 5.425781 2.722656 5.582031 2.761719 5.855469 L 2.765625 5.855469 C 2.941406 5.835938 3.007812 5.832031 3.289062 5.863281 L 3.285156 5.859375 C 3.570312 5.914062 4.011719 5.867188 4.152344 5.671875 L 4.15625 5.671875 C 4.367188 5.410156 4.589844 5.164062 4.824219 4.925781 L 4.820312 4.917969 C 4.675781 5.066406 4.316406 5.046875 4.0625 4.945312 L 4.066406 4.949219 C 3.921875 4.878906 3.683594 4.867188 3.507812 4.867188 L 3.503906 4.867188 C 3.496094 4.589844 3.449219 4.488281 3.398438 4.328125 L 3.402344 4.332031 C 3.296875 4.011719 3.308594 3.800781 3.375 3.683594 L 3.375 3.679688 C 3.117188 3.949219 2.871094 4.226562 2.636719 4.515625 Z M 2.628906 4.523438 "
    />
    <path
      style="
        stroke: none;
        fill-rule: nonzero;
        fill: rgb(11.764706%, 40.784314%, 26.27451%);
        fill-opacity: 1;
      "
      d="M 5.066406 4.675781 C 4.921875 4.820312 4.5625 4.789062 4.3125 4.679688 L 4.316406 4.683594 C 4.171875 4.613281 3.933594 4.597656 3.757812 4.59375 L 3.753906 4.589844 C 3.753906 4.3125 3.707031 4.210938 3.664062 4.050781 L 3.664062 4.054688 C 3.570312 3.730469 3.539062 3.484375 3.660156 3.394531 L 3.648438 3.40625 C 3.925781 3.140625 4.214844 2.882812 4.515625 2.644531 L 4.519531 2.636719 C 4.457031 2.753906 4.40625 2.9375 4.492188 3.226562 L 4.492188 3.222656 C 4.535156 3.382812 4.585938 3.488281 4.585938 3.765625 L 4.585938 3.761719 C 4.761719 3.765625 5 3.785156 5.144531 3.859375 L 5.140625 3.855469 C 5.390625 3.964844 5.648438 4.082031 5.882812 3.984375 L 5.898438 3.980469 C 5.609375 4.195312 5.335938 4.425781 5.074219 4.671875 Z M 5.066406 4.675781 "
    />
    <path
      style="
        stroke: none;
        fill-rule: nonzero;
        fill: rgb(11.764706%, 40.784314%, 26.27451%);
        fill-opacity: 1;
      "
      d="M 5.035156 2.25 C 5.257812 2.089844 5.484375 1.9375 5.714844 1.796875 L 5.726562 1.785156 C 5.671875 1.898438 5.625 2.214844 5.660156 2.363281 L 5.660156 2.359375 C 5.707031 2.664062 5.699219 2.867188 5.675781 2.894531 L 5.679688 2.902344 C 5.785156 2.890625 6.140625 3.003906 6.265625 3.113281 L 6.261719 3.109375 C 6.511719 3.292969 6.820312 3.339844 6.855469 3.332031 L 6.863281 3.332031 C 6.652344 3.457031 6.449219 3.585938 6.25 3.726562 L 6.253906 3.71875 C 5.984375 3.925781 5.839844 3.917969 5.394531 3.675781 L 5.398438 3.679688 C 5.253906 3.605469 5.007812 3.578125 4.832031 3.570312 L 4.828125 3.574219 C 4.839844 3.332031 4.8125 3.238281 4.792969 3.078125 L 4.796875 3.082031 C 4.722656 2.644531 4.816406 2.425781 5.039062 2.25 Z M 5.035156 2.25 "
    />
    <path
      style="
        stroke: none;
        fill-rule: nonzero;
        fill: rgb(11.764706%, 40.784314%, 26.27451%);
        fill-opacity: 1;
      "
      d="M 7.484375 2.988281 C 7.578125 2.941406 7.683594 2.886719 7.78125 2.84375 C 7.746094 2.84375 7.46875 2.773438 7.246094 2.554688 L 7.25 2.5625 C 7.144531 2.4375 6.804688 2.265625 6.699219 2.261719 L 6.695312 2.261719 C 6.722656 2.238281 6.863281 1.976562 6.859375 1.667969 L 6.863281 1.671875 C 6.84375 1.511719 6.945312 1.164062 7.019531 1.085938 C 6.835938 1.167969 6.671875 1.25 6.496094 1.339844 L 6.488281 1.347656 C 6.21875 1.488281 6.078125 1.691406 6.089844 2.160156 L 6.085938 2.15625 C 6.085938 2.316406 6.097656 2.414062 6.050781 2.652344 L 6.054688 2.648438 C 6.277344 2.75 6.347656 2.816406 6.480469 2.90625 L 6.480469 2.902344 C 6.878906 3.199219 7.128906 3.183594 7.425781 3.019531 C 7.445312 3.011719 7.464844 3 7.484375 2.984375 "
    />
    <path
      style="
        stroke: none;
        fill-rule: nonzero;
        fill: rgb(11.764706%, 40.784314%, 26.27451%);
        fill-opacity: 1;
      "
      d="M 7.828125 0.75 C 7.988281 0.691406 8.140625 0.636719 8.308594 0.582031 C 8.085938 0.742188 7.964844 1.011719 7.992188 1.285156 L 7.992188 1.277344 C 7.996094 1.429688 7.960938 1.578125 7.882812 1.703125 L 7.878906 1.703125 C 8.027344 1.761719 8.15625 1.867188 8.242188 2.003906 L 8.242188 2 C 8.378906 2.238281 8.640625 2.394531 8.914062 2.402344 L 8.917969 2.402344 C 8.816406 2.433594 8.585938 2.511719 8.558594 2.519531 C 8.238281 2.632812 7.882812 2.527344 7.679688 2.261719 L 7.683594 2.265625 C 7.5625 2.128906 7.398438 2.035156 7.21875 2.003906 L 7.222656 2.003906 C 7.324219 1.863281 7.375 1.695312 7.367188 1.523438 L 7.371094 1.527344 C 7.335938 1.203125 7.519531 0.890625 7.824219 0.75 M 10.121094 2.097656 C 10.054688 2.113281 9.949219 2.128906 9.949219 2.128906 C 9.589844 2.238281 9.210938 2.082031 9.035156 1.765625 L 9.039062 1.769531 C 8.941406 1.613281 8.792969 1.5 8.617188 1.441406 L 8.621094 1.445312 C 8.742188 1.320312 8.816406 1.160156 8.835938 0.988281 L 8.835938 0.996094 C 8.855469 0.632812 9.128906 0.328125 9.5 0.269531 L 9.503906 0.265625 C 9.578125 0.25 9.660156 0.226562 9.734375 0.214844 L 9.738281 0.214844 C 9.496094 0.347656 9.34375 0.597656 9.335938 0.871094 L 9.335938 0.867188 C 9.324219 1.015625 9.269531 1.160156 9.175781 1.277344 L 9.171875 1.273438 C 9.316406 1.351562 9.429688 1.472656 9.5 1.617188 L 9.496094 1.613281 C 9.601562 1.859375 9.835938 2.050781 10.097656 2.09375 C 10.105469 2.097656 10.113281 2.097656 10.121094 2.097656 Z M 10.121094 2.097656 "
    />
    <path
      style="
        stroke: none;
        fill-rule: nonzero;
        fill: rgb(11.764706%, 40.784314%, 26.27451%);
        fill-opacity: 1;
      "
      d="M 10.835938 0.0585938 C 10.585938 0.171875 10.421875 0.398438 10.390625 0.675781 L 10.390625 0.667969 C 10.367188 0.816406 10.300781 0.953125 10.199219 1.066406 L 10.195312 1.0625 C 10.328125 1.152344 10.433594 1.28125 10.492188 1.429688 L 10.492188 1.425781 C 10.574219 1.6875 10.804688 1.898438 11.070312 1.960938 C 11.039062 1.960938 10.980469 1.96875 10.980469 1.96875 C 10.578125 2.027344 10.246094 1.84375 10.105469 1.507812 L 10.105469 1.515625 C 10.027344 1.351562 9.890625 1.21875 9.722656 1.148438 L 9.726562 1.148438 C 9.859375 1.039062 9.949219 0.886719 9.984375 0.71875 L 9.984375 0.722656 C 10.039062 0.363281 10.339844 0.0859375 10.71875 0.0664062 L 10.714844 0.0664062 C 10.714844 0.0664062 10.804688 0.0625 10.839844 0.0585938 Z M 1.1875 17.179688 C 1.84375 17.171875 2.238281 17.3125 2.238281 17.3125 C 2.40625 16.5 2.722656 16.035156 2.722656 16.035156 C 2.5 15.519531 2.324219 14.988281 2.1875 14.429688 L 2.179688 14.4375 C 2.179688 14.4375 1.773438 14.71875 1.4375 15.476562 C 1.4375 15.476562 1.046875 15.242188 0.40625 15.105469 L 0.40625 15.109375 C 0.601562 15.835938 0.859375 16.519531 1.175781 17.179688 Z M 1.1875 17.179688 "
    />
    <path
      style="
        stroke: none;
        fill-rule: nonzero;
        fill: rgb(11.764706%, 40.784314%, 26.27451%);
        fill-opacity: 1;
      "
      d="M 1.234375 17.308594 C 1.617188 18.082031 2.082031 18.796875 2.613281 19.46875 L 2.621094 19.476562 C 3.042969 19.292969 3.660156 19.347656 3.660156 19.347656 C 3.644531 18.707031 3.96875 18.152344 3.96875 18.152344 C 3.503906 17.542969 3.109375 16.886719 2.792969 16.179688 L 2.785156 16.164062 C 2.785156 16.164062 2.464844 16.628906 2.300781 17.441406 C 2.300781 17.441406 1.902344 17.300781 1.246094 17.308594 Z M 1.234375 17.308594 "
    />
    <path
      style="
        stroke: none;
        fill-rule: nonzero;
        fill: rgb(11.764706%, 40.784314%, 26.27451%);
        fill-opacity: 1;
      "
      d="M 5.28125 21.933594 C 4.304688 21.269531 3.429688 20.46875 2.6875 19.554688 L 2.695312 19.550781 C 3.117188 19.367188 3.734375 19.421875 3.734375 19.421875 C 3.71875 18.78125 4.03125 18.226562 4.03125 18.226562 C 4.824219 19.242188 5.800781 20.101562 6.914062 20.753906 L 6.410156 20.847656 L 6.015625 20.910156 C 6.015625 20.910156 6.160156 21.019531 5.929688 20.847656 Z M 11.542969 7.699219 L 12.003906 6.753906 L 12.007812 6.746094 L 12.015625 6.753906 L 12.476562 7.699219 C 13.289062 7.589844 14.183594 8.105469 14.183594 8.105469 L 12.007812 4.488281 L 9.835938 8.105469 C 9.835938 8.105469 10.730469 7.589844 11.542969 7.699219 Z M 12.003906 13.808594 L 12.007812 13.804688 L 12.015625 13.808594 C 14.390625 11.808594 16.820312 12.097656 16.820312 12.097656 L 15.042969 8.9375 C 14.910156 8.703125 14.746094 8.683594 14.746094 8.683594 C 13.527344 8.113281 12.664062 8.257812 12.664062 8.257812 C 12.351562 8.265625 12.441406 8.632812 12.441406 8.632812 L 12.503906 9.441406 C 12.53125 9.707031 12.421875 9.648438 12.421875 9.648438 L 11.597656 9.648438 C 11.597656 9.648438 11.484375 9.707031 11.515625 9.441406 L 11.578125 8.632812 C 11.578125 8.632812 11.667969 8.265625 11.355469 8.257812 C 11.355469 8.257812 10.492188 8.113281 9.269531 8.683594 C 9.269531 8.683594 9.109375 8.703125 8.976562 8.9375 L 7.199219 12.097656 C 7.199219 12.097656 9.625 11.808594 12.003906 13.808594 Z M 12.003906 13.808594 "
    />
    <path
      style="
        stroke: none;
        fill-rule: nonzero;
        fill: rgb(15.686275%, 22.745098%, 45.490196%);
        fill-opacity: 1;
      "
      d="M 17.289062 12.433594 C 14.097656 11.996094 12.015625 14.347656 12.015625 14.347656 L 12.003906 14.347656 C 12.003906 14.347656 9.921875 11.996094 6.730469 12.433594 L 4.8125 15.761719 C 4.8125 15.761719 9.039062 15.554688 11.597656 19.234375 L 12.421875 19.234375 C 14.980469 15.554688 19.199219 15.84375 19.199219 15.84375 Z M 17.289062 12.433594 "
    />
    <path
      style="
        stroke: none;
        fill-rule: nonzero;
        fill: rgb(15.686275%, 22.745098%, 45.490196%);
        fill-opacity: 1;
      "
      d="M 4.203125 16.054688 L 4.144531 16.15625 L 4.261719 16.15625 C 9.320312 16.117188 10.960938 19.222656 10.976562 19.253906 L 11.101562 19.191406 C 11.082031 19.160156 9.429688 16.027344 4.378906 16.019531 L 6.222656 12.769531 L 6.101562 12.703125 Z M 4.203125 16.054688 "
    />
    <path
      style="
        stroke: none;
        fill-rule: nonzero;
        fill: rgb(15.686275%, 22.745098%, 45.490196%);
        fill-opacity: 1;
      "
      d="M 3.714844 16.316406 L 3.65625 16.421875 L 3.777344 16.417969 C 3.828125 16.417969 8.746094 16.289062 10.605469 19.269531 L 10.722656 19.195312 C 8.988281 16.414062 4.667969 16.28125 3.894531 16.28125 C 4.003906 16.085938 5.773438 12.992188 5.773438 12.992188 L 5.65625 12.925781 Z M 3.714844 16.316406 "
    />
    <path
      style="
        stroke: none;
        fill-rule: nonzero;
        fill: rgb(15.686275%, 22.745098%, 45.490196%);
        fill-opacity: 1;
      "
      d="M 3.226562 16.625 L 3.167969 16.730469 L 3.285156 16.726562 C 8.644531 16.625 10.273438 19.242188 10.289062 19.269531 L 10.40625 19.199219 C 10.390625 19.171875 8.753906 16.527344 3.402344 16.589844 C 3.511719 16.394531 5.285156 13.257812 5.285156 13.257812 L 5.167969 13.191406 Z M 17.796875 12.769531 C 17.796875 12.769531 19.53125 15.804688 19.632812 15.984375 C 14.285156 16.1875 12.929688 19.164062 12.917969 19.195312 L 13.042969 19.25 C 13.054688 19.21875 14.394531 16.273438 19.75 16.113281 L 19.863281 16.113281 L 17.917969 12.703125 Z M 17.796875 12.769531 "
    />
    <path
      style="
        stroke: none;
        fill-rule: nonzero;
        fill: rgb(15.686275%, 22.745098%, 45.490196%);
        fill-opacity: 1;
      "
      d="M 18.246094 12.992188 C 18.246094 12.992188 19.988281 16.050781 20.097656 16.242188 C 19.355469 16.246094 15.039062 16.402344 13.296875 19.195312 L 13.414062 19.269531 C 15.269531 16.285156 20.164062 16.375 20.214844 16.378906 L 20.335938 16.382812 L 18.363281 12.925781 Z M 18.246094 12.992188 "
    />
    <path
      style="
        stroke: none;
        fill-rule: nonzero;
        fill: rgb(15.686275%, 22.745098%, 45.490196%);
        fill-opacity: 1;
      "
      d="M 18.734375 13.257812 L 20.613281 16.585938 C 15.636719 16.375 13.695312 19.164062 13.675781 19.191406 L 13.789062 19.265625 C 13.808594 19.238281 15.742188 16.464844 20.730469 16.726562 L 20.851562 16.734375 L 18.851562 13.191406 Z M 18.734375 13.257812 "
    />
    <path
      style="
        stroke: none;
        fill-rule: nonzero;
        fill: rgb(13.72549%, 12.156863%, 12.54902%);
        fill-opacity: 1;
      "
      d="M 10.046875 20.769531 L 10.046875 19.753906 L 9.84375 19.753906 L 9.84375 19.554688 L 10.28125 19.554688 L 10.28125 20.769531 Z M 11.023438 20.769531 L 11.273438 20.398438 L 11.253906 20.398438 C 11.144531 20.398438 11.050781 20.355469 10.972656 20.273438 C 10.898438 20.191406 10.859375 20.09375 10.859375 19.980469 C 10.859375 19.941406 10.863281 19.902344 10.875 19.863281 C 10.886719 19.820312 10.902344 19.785156 10.921875 19.75 C 10.957031 19.683594 11.011719 19.625 11.074219 19.589844 C 11.144531 19.550781 11.214844 19.53125 11.296875 19.53125 C 11.351562 19.53125 11.410156 19.542969 11.460938 19.566406 C 11.511719 19.585938 11.558594 19.617188 11.597656 19.660156 C 11.640625 19.699219 11.671875 19.746094 11.695312 19.796875 C 11.71875 19.847656 11.730469 19.902344 11.730469 19.957031 C 11.730469 20.023438 11.710938 20.09375 11.675781 20.167969 C 11.65625 20.210938 11.617188 20.277344 11.558594 20.367188 L 11.550781 20.378906 L 11.289062 20.769531 L 11.023438 20.769531 M 11.441406 19.820312 C 11.402344 19.78125 11.355469 19.757812 11.296875 19.757812 C 11.230469 19.757812 11.179688 19.777344 11.140625 19.816406 C 11.105469 19.851562 11.085938 19.90625 11.085938 19.972656 C 11.085938 20.039062 11.105469 20.089844 11.140625 20.128906 C 11.179688 20.164062 11.230469 20.183594 11.292969 20.183594 C 11.355469 20.183594 11.40625 20.164062 11.445312 20.125 C 11.484375 20.085938 11.503906 20.039062 11.503906 19.984375 C 11.503906 19.917969 11.484375 19.863281 11.441406 19.820312 Z M 12.234375 20.769531 L 12.484375 20.398438 L 12.46875 20.398438 C 12.359375 20.398438 12.265625 20.355469 12.1875 20.273438 C 12.109375 20.195312 12.070312 20.089844 12.070312 19.980469 C 12.070312 19.941406 12.078125 19.902344 12.085938 19.863281 C 12.097656 19.820312 12.113281 19.785156 12.136719 19.75 C 12.171875 19.683594 12.222656 19.625 12.289062 19.589844 C 12.355469 19.550781 12.429688 19.53125 12.507812 19.53125 C 12.566406 19.53125 12.621094 19.542969 12.671875 19.566406 C 12.726562 19.585938 12.773438 19.617188 12.8125 19.660156 C 12.851562 19.699219 12.882812 19.746094 12.90625 19.796875 C 12.929688 19.851562 12.941406 19.902344 12.941406 19.957031 C 12.941406 20.023438 12.925781 20.09375 12.890625 20.167969 C 12.871094 20.210938 12.832031 20.277344 12.769531 20.367188 L 12.765625 20.378906 L 12.503906 20.769531 L 12.234375 20.769531 M 12.65625 19.820312 C 12.617188 19.78125 12.566406 19.757812 12.511719 19.757812 C 12.445312 19.757812 12.390625 19.777344 12.355469 19.816406 C 12.316406 19.851562 12.300781 19.90625 12.300781 19.972656 C 12.300781 20.039062 12.316406 20.089844 12.355469 20.128906 C 12.390625 20.164062 12.441406 20.183594 12.503906 20.183594 C 12.566406 20.183594 12.617188 20.164062 12.65625 20.125 C 12.695312 20.085938 12.714844 20.039062 12.714844 19.984375 C 12.714844 19.917969 12.695312 19.863281 12.65625 19.820312 Z M 13.683594 20.769531 L 13.683594 19.753906 L 13.480469 19.753906 L 13.480469 19.554688 L 13.921875 19.554688 L 13.921875 20.769531 Z M 13.683594 20.769531 "
    />
  </g>
</svg>