<?xml version="1.0" encoding="UTF-8"?>
<svg xmlns="http://www.w3.org/2000/svg" xmlns:xlink="http://www.w3.org/1999/xlink" width="48px" height="36px" viewBox="0 0 48 36" version="1.1">
<g id="surface1">
<path style=" stroke:none;fill-rule:nonzero;fill:rgb(81.176471%,39.215686%,60.392157%);fill-opacity:1;" d="M 41.304688 20.679688 C 39.628906 20.691406 38.175781 21.09375 36.957031 21.695312 C 36.507812 20.804688 36.054688 20.023438 35.980469 19.445312 C 35.898438 18.769531 35.792969 18.355469 35.898438 17.550781 C 36 16.742188 36.46875 15.601562 36.46875 15.507812 C 36.460938 15.421875 36.367188 15.007812 35.398438 15 C 34.433594 14.992188 33.601562 15.1875 33.507812 15.441406 C 33.414062 15.695312 33.226562 16.273438 33.101562 16.875 C 32.933594 17.757812 31.171875 20.878906 30.167969 22.519531 C 29.839844 21.882812 29.558594 21.320312 29.503906 20.867188 C 29.417969 20.195312 29.316406 19.78125 29.417969 18.976562 C 29.523438 18.167969 29.992188 17.023438 29.992188 16.929688 C 29.980469 16.847656 29.886719 16.433594 28.921875 16.425781 C 27.957031 16.414062 27.121094 16.613281 27.027344 16.867188 C 26.933594 17.117188 26.832031 17.71875 26.625 18.300781 C 26.429688 18.882812 24.085938 24.09375 23.476562 25.453125 C 23.164062 26.148438 22.894531 26.699219 22.695312 27.074219 C 22.5 27.449219 22.6875 27.101562 22.667969 27.140625 C 22.5 27.460938 22.40625 27.636719 22.40625 27.636719 L 22.40625 27.648438 C 22.273438 27.882812 22.132812 28.105469 22.070312 28.105469 C 22.023438 28.105469 21.929688 27.476562 22.085938 26.617188 C 22.433594 24.804688 23.277344 21.984375 23.269531 21.882812 C 23.269531 21.835938 23.429688 21.335938 22.726562 21.085938 C 22.039062 20.832031 21.796875 21.253906 21.742188 21.253906 C 21.683594 21.253906 21.636719 21.402344 21.636719 21.402344 C 21.636719 21.402344 22.398438 18.226562 20.183594 18.226562 C 18.796875 18.226562 16.882812 19.734375 15.9375 21.113281 C 15.335938 21.441406 14.0625 22.132812 12.710938 22.875 C 12.195312 23.15625 11.664062 23.457031 11.15625 23.726562 L 11.054688 23.617188 C 8.371094 20.757812 3.414062 18.730469 3.617188 14.886719 C 3.695312 13.492188 4.179688 9.804688 13.144531 5.34375 C 20.484375 1.6875 26.363281 2.691406 27.382812 4.921875 C 28.835938 8.109375 24.242188 14.035156 16.613281 14.886719 C 13.707031 15.214844 12.179688 14.089844 11.792969 13.667969 C 11.390625 13.226562 11.335938 13.210938 11.183594 13.292969 C 10.941406 13.425781 11.089844 13.820312 11.183594 14.054688 C 11.410156 14.644531 12.347656 15.695312 13.941406 16.21875 C 15.335938 16.679688 18.75 16.929688 22.875 15.335938 C 27.496094 13.546875 31.105469 8.578125 30.046875 4.425781 C 28.96875 0.195312 21.957031 -1.191406 15.328125 1.164062 C 11.382812 2.570312 7.105469 4.761719 4.03125 7.640625 C 0.375 11.054688 -0.207031 14.035156 0.0390625 15.273438 C 0.890625 19.6875 6.976562 22.566406 9.414062 24.695312 C 9.289062 24.757812 9.179688 24.824219 9.074219 24.882812 C 7.855469 25.480469 3.214844 27.910156 2.054688 30.476562 C 0.742188 33.382812 2.257812 35.476562 3.273438 35.757812 C 6.402344 36.628906 9.609375 35.0625 11.34375 32.484375 C 13.070312 29.90625 12.863281 26.558594 12.066406 25.03125 L 12.039062 24.976562 L 12.992188 24.414062 C 13.613281 24.046875 14.222656 23.710938 14.757812 23.417969 C 14.457031 24.234375 14.242188 25.199219 14.128906 26.605469 C 13.996094 28.257812 14.671875 30.394531 15.5625 31.238281 C 15.957031 31.601562 16.425781 31.613281 16.714844 31.613281 C 17.746094 31.613281 18.214844 30.757812 18.730469 29.738281 C 19.367188 28.492188 19.929688 27.046875 19.929688 27.046875 C 19.929688 27.046875 19.226562 30.957031 21.148438 30.957031 C 21.851562 30.957031 22.554688 30.046875 22.875 29.578125 L 22.875 29.585938 C 22.875 29.585938 22.894531 29.558594 22.929688 29.492188 C 23.007812 29.382812 23.042969 29.316406 23.042969 29.316406 L 23.042969 29.296875 C 23.324219 28.808594 23.953125 27.695312 24.890625 25.847656 C 26.101562 23.464844 27.261719 20.484375 27.261719 20.484375 C 27.261719 20.484375 27.375 21.214844 27.722656 22.414062 C 27.929688 23.128906 28.378906 23.90625 28.726562 24.664062 C 28.445312 25.058594 28.273438 25.285156 28.273438 25.285156 L 28.285156 25.292969 C 28.058594 25.59375 27.804688 25.914062 27.542969 26.230469 C 26.585938 27.375 25.445312 28.679688 25.292969 29.054688 C 25.117188 29.492188 25.152344 29.820312 25.5 30.085938 C 25.753906 30.273438 26.203125 30.308594 26.679688 30.273438 C 27.542969 30.214844 28.144531 30 28.445312 29.867188 C 28.914062 29.699219 29.445312 29.445312 29.960938 29.070312 C 30.898438 28.378906 31.472656 27.394531 31.414062 26.082031 C 31.386719 25.359375 31.152344 24.648438 30.863281 23.972656 C 30.945312 23.851562 31.03125 23.726562 31.117188 23.597656 C 32.597656 21.429688 33.742188 19.050781 33.742188 19.050781 C 33.742188 19.050781 33.851562 19.78125 34.199219 20.980469 C 34.378906 21.589844 34.734375 22.257812 35.054688 22.914062 C 33.664062 24.046875 32.792969 25.359375 32.492188 26.222656 C 31.941406 27.816406 32.371094 28.539062 33.1875 28.707031 C 33.554688 28.78125 34.078125 28.613281 34.472656 28.445312 C 34.960938 28.285156 35.550781 28.011719 36.09375 27.609375 C 37.03125 26.914062 37.929688 25.949219 37.882812 24.648438 C 37.855469 24.046875 37.695312 23.457031 37.480469 22.894531 C 38.664062 22.40625 40.191406 22.125 42.132812 22.359375 C 46.304688 22.847656 47.128906 25.453125 46.96875 26.539062 C 46.808594 27.628906 45.9375 28.226562 45.648438 28.414062 C 45.355469 28.59375 45.261719 28.660156 45.289062 28.789062 C 45.328125 28.988281 45.460938 28.976562 45.710938 28.941406 C 46.058594 28.882812 47.90625 28.050781 47.980469 26.042969 C 48.09375 23.464844 45.648438 20.652344 41.304688 20.679688 Z M 9.132812 31.527344 C 7.753906 33.039062 5.8125 33.609375 4.988281 33.121094 C 4.097656 32.605469 4.445312 30.382812 6.140625 28.78125 C 7.171875 27.804688 8.511719 26.90625 9.394531 26.351562 C 9.589844 26.230469 9.890625 26.054688 10.246094 25.835938 C 10.304688 25.800781 10.339844 25.78125 10.339844 25.78125 C 10.40625 25.742188 10.480469 25.695312 10.554688 25.648438 C 11.183594 27.9375 10.585938 29.945312 9.132812 31.527344 Z M 19.210938 24.675781 C 18.730469 25.847656 17.71875 28.855469 17.109375 28.6875 C 16.585938 28.546875 16.265625 26.269531 17.007812 24.019531 C 17.382812 22.882812 18.179688 21.535156 18.648438 21.007812 C 19.40625 20.164062 20.230469 19.882812 20.4375 20.230469 C 20.679688 20.679688 19.507812 23.945312 19.210938 24.675781 Z M 27.523438 28.648438 C 27.320312 28.753906 27.132812 28.828125 27.046875 28.773438 C 26.980469 28.734375 27.132812 28.59375 27.132812 28.59375 C 27.132812 28.59375 28.171875 27.476562 28.585938 26.960938 C 28.820312 26.664062 29.101562 26.316406 29.398438 25.921875 L 29.398438 26.035156 C 29.398438 27.382812 28.105469 28.285156 27.523438 28.648438 Z M 33.9375 27.1875 C 33.789062 27.074219 33.804688 26.726562 34.3125 25.640625 C 34.507812 25.210938 34.960938 24.488281 35.738281 23.804688 C 35.832031 24.085938 35.886719 24.355469 35.878906 24.609375 C 35.867188 26.296875 34.667969 26.925781 33.9375 27.1875 Z M 33.9375 27.1875 "/>
</g>
</svg>
